{"title":"CockTail [2012]-1CD-DVDRip-By-K@rtik [EXD Exclusive]","uid":7634275,"size":739714041,"categoryP":"video","categoryS":"movies","magnet":"?xt=urn:btih:c5687cae8b29f12a47b65334a51d140e2bc4dfd5&amp;dn=CockTail+%5B2012%5D-1CD-DVDRip-By-K%40rtik+%5BEXD+Exclusive%5D&amp;tr=udp%3A%2F%2Ftracker.openbittorrent.com%3A80&amp;tr=udp%3A%2F%2Fopen.demonii.com%3A1337&amp;tr=udp%3A%2F%2Ftracker.coppersurfer.tk%3A6969&amp;tr=udp%3A%2F%2Fexodus.desync.com%3A6969","seeders":0,"leechers":0,"uploader":"TeamExD","files":3,"time":1347603909,"description":" &lt;a href=&quot;http://img713.imageshack.us/img713/7002/teamexd.png&quot; rel=&quot;nofollow&quot; target=&quot;_NEW&quot;&gt;http://img713.imageshack.us/img713/7002/teamexd.png&lt;/a&gt; &lt;a href=&quot;\nhttp://img13.imageshack.us/img13/1576/cocktail001.jpg&quot; rel=&quot;nofollow&quot; target=&quot;_NEW&quot;&gt;\nhttp://img13.imageshack.us/img13/1576/cocktail001.jpg&lt;/a&gt;\nFormat                                   : Matroska\nFormat version                           : Version 2\nFile size                                : 696 MiB\nDuration                                 : 2h 24mn\nOverall bit rate                         : 672 Kbps\nMovie name                               : CockTail [2012]]-1CD-DVDRip-By-K@rtik [EXD Exclusive]\nCodec ID                                 : V_MPEG4/ISO/AVC\nDuration                                 : 2h 24mn\nBit rate                                 : 543 Kbps\nWidth                                    : 688 pixels\nHeight                                   : 288 pixels\nDisplay aspect ratio                     : 2.40:1\nFrame rate                               : 23.976 fps\nColor space                              : YUV\nChroma subsampling                       : 4:2:0\nStream size                              : 550 MiB (79%)\nTitle                                    : K@rtik\nCodec ID                                 : A_AC3\nDuration                                 : 2h 24mn\nBit rate mode                            : Constant\nBit rate                                 : 128 Kbps\nChannel(s)                               : 2 channels\nChannel positions                        : Front: L R\nSampling rate                            : 48.0 KHz\nBit depth                                : 16 bits\nCompression mode                         : Lossy\nStream size                              : 133 MiB (19%)\nTitle                                    : K@rtik\nLanguage                                 : Hindi &lt;a href=&quot;\nhttp://img705.imageshack.us/img705/9832/17040478.png&quot; rel=&quot;nofollow&quot; target=&quot;_NEW&quot;&gt;\nhttp://img705.imageshack.us/img705/9832/17040478.png&lt;/a&gt; &lt;a href=&quot;\nhttp://img16.imageshack.us/img16/5796/16511615.png&quot; rel=&quot;nofollow&quot; target=&quot;_NEW&quot;&gt;\nhttp://img16.imageshack.us/img16/5796/16511615.png&lt;/a&gt; &lt;a href=&quot;\nhttp://img441.imageshack.us/img441/1627/19463089.png&quot; rel=&quot;nofollow&quot; target=&quot;_NEW&quot;&gt;\nhttp://img441.imageshack.us/img441/1627/19463089.png&lt;/a&gt; &lt;a href=&quot;\nhttp://img818.imageshack.us/img818/1271/67436600.png&quot; rel=&quot;nofollow&quot; target=&quot;_NEW&quot;&gt;\nhttp://img818.imageshack.us/img818/1271/67436600.png&lt;/a&gt; &lt;a href=&quot;\nhttp://img338.imageshack.us/img338/2276/81894154.png&quot; rel=&quot;nofollow&quot; target=&quot;_NEW&quot;&gt;\nhttp://img338.imageshack.us/img338/2276/81894154.png&lt;/a&gt; &lt;a href=&quot;\nhttp://img839.imageshack.us/img839/7051/72666507.png&quot; rel=&quot;nofollow&quot; target=&quot;_NEW&quot;&gt;\nhttp://img839.imageshack.us/img839/7051/72666507.png&lt;/a&gt; &lt;a href=&quot;\nhttp://img543.imageshack.us/img543/1796/26957062.png&quot; rel=&quot;nofollow&quot; target=&quot;_NEW&quot;&gt;\nhttp://img543.imageshack.us/img543/1796/26957062.png&lt;/a&gt; &lt;a href=&quot;\nhttp://img228.imageshack.us/img228/7281/74423770.png&quot; rel=&quot;nofollow&quot; target=&quot;_NEW&quot;&gt;\nhttp://img228.imageshack.us/img228/7281/74423770.png&lt;/a&gt; &lt;a href=&quot;\nhttp://img823.imageshack.us/img823/9279/95399024.png&quot; rel=&quot;nofollow&quot; target=&quot;_NEW&quot;&gt;\nhttp://img823.imageshack.us/img823/9279/95399024.png&lt;/a&gt; &lt;a href=&quot;\nhttp://img528.imageshack.us/img528/8239/66822824.png&quot; rel=&quot;nofollow&quot; target=&quot;_NEW&quot;&gt;\nhttp://img528.imageshack.us/img528/8239/66822824.png&lt;/a&gt; &lt;a href=&quot;\nhttp://img69.imageshack.us/img69/5232/53915853.png&quot; rel=&quot;nofollow&quot; target=&quot;_NEW&quot;&gt;\nhttp://img69.imageshack.us/img69/5232/53915853.png&lt;/a&gt;\n\n\n\n","torrent":{"xt":"urn:btih:c5687cae8b29f12a47b65334a51d140e2bc4dfd5","amp;dn":"CockTail+%5B2012%5D-1CD-DVDRip-By-K%40rtik+%5BEXD+Exclusive%5D","amp;tr":["udp%3A%2F%2Ftracker.openbittorrent.com%3A80","udp%3A%2F%2Fopen.demonii.com%3A1337","udp%3A%2F%2Ftracker.coppersurfer.tk%3A6969","udp%3A%2F%2Fexodus.desync.com%3A6969"],"infoHash":"c5687cae8b29f12a47b65334a51d140e2bc4dfd5","infoHashBuffer":{"type":"Buffer","data":[197,104,124,174,139,41,241,42,71,182,83,52,165,29,20,14,43,196,223,213]},"announce":[],"urlList":[]}}